<svg width="37" height="37" viewBox="0 0 37 37" fill="none" xmlns="http://www.w3.org/2000/svg">
<rect x="0.5" y="0.5" width="36" height="36" rx="8" fill="url(#paint0_linear_5_13438)"/>
<path d="M25.5 17.5H11.5C10.3954 17.5 9.5 18.3954 9.5 19.5V25.5C9.5 26.6046 10.3954 27.5 11.5 27.5H25.5C26.6046 27.5 27.5 26.6046 27.5 25.5V19.5C27.5 18.3954 26.6046 17.5 25.5 17.5Z" stroke="white" stroke-opacity="0.8" stroke-width="2" stroke-linecap="round" stroke-linejoin="round"/>
<path d="M18.5 13.5C19.6046 13.5 20.5 12.6046 20.5 11.5C20.5 10.3954 19.6046 9.5 18.5 9.5C17.3954 9.5 16.5 10.3954 16.5 11.5C16.5 12.6046 17.3954 13.5 18.5 13.5Z" stroke="white" stroke-opacity="0.8" stroke-width="2" stroke-linecap="round" stroke-linejoin="round"/>
<path d="M18.5 13.5V17.5" stroke="white" stroke-opacity="0.8" stroke-width="2" stroke-linecap="round" stroke-linejoin="round"/>
<circle cx="14.5" cy="22.5" r="1" fill="white" fill-opacity="0.8"/>
<circle cx="22.5" cy="22.5" r="1" fill="white" fill-opacity="0.8"/>
<defs>
<linearGradient id="paint0_linear_5_13438" x1="-2.875" y1="-8.125" x2="36.5" y2="44" gradientUnits="userSpaceOnUse">
<stop offset="0.0550171" stop-color="#0A0FDB"/>
<stop offset="1" stop-color="#8D00A6"/>
</linearGradient>
</defs>
</svg>
