<svg width="1149" height="176" viewBox="0 0 1149 176" fill="none" xmlns="http://www.w3.org/2000/svg">
<path d="M0.5 88.7684C26.6007 87.3154 79.8143 81.0296 112.453 69.7759C145.091 58.5222 189.522 32.5301 217.934 31.4795C245.318 30.467 266.224 34.416 287.776 40.1045C299.906 43.3062 350.595 62.3034 377.774 61.058C404.953 59.8126 421.778 60.124 454.135 47.9812L515.612 14.9779C525.318 10.1 551.203 0.282019 577.089 0.0329367C590.894 -0.3822 625.493 2.95965 653.449 19.6481L703.278 47.6699C703.278 47.6699 719.871 58.1359 728.516 60.9339C737.161 63.7319 747.086 64.1386 759.578 61.9921C771.657 59.9164 805.282 52.375 835.309 37.9283C845.785 33.8867 860.918 29.3001 875.413 29.3001C883.394 28.9887 903.757 30.8569 921.359 40.8201C935.164 49.7456 940.748 57.3322 972.482 70.71C999.725 79.5007 1020.24 82.4791 1050.78 84.7208C1075.66 85.8254 1124.72 87.7627 1143.09 87.6654C1145.01 87.6121 1146.82 87.5645 1148.5 87.523C1147.27 87.6075 1145.43 87.653 1143.09 87.6654C1116.14 88.4129 1067.37 90.2815 1050.78 92.0227C1038.22 93.3418 988.625 99.4144 972.482 105.893C956.339 112.371 931.195 128.808 921.359 134.537C913.809 139.623 894.05 149.109 875.413 146.369C867.863 145.953 848.881 143.691 833.35 137.962C817.603 130.697 778.035 119.7 759.578 114.611C750.946 112.23 741.572 109.121 728.516 114.611L703.278 130.178C688.394 138.792 662.808 154.033 653.449 158.511C644.09 162.99 597.052 176.966 577.089 175.947C557.125 174.929 542.82 171.615 516.382 160.53C489.944 149.446 469.666 134.911 454.135 130.178C443.349 124.366 412.978 113.49 377.774 116.479C367.204 115.856 334.417 118.721 287.824 135.16C276.607 139.104 246.925 146.493 217.934 144.501C205.423 143.048 190.312 138.744 163.576 128.31C136.839 117.876 140.825 115.429 103.541 104.345C66.2563 93.2605 0.5 88.7684 0.5 88.7684Z" fill="url(#paint0_linear_133_1153)" fill-opacity="0.65"/>
<defs>
<linearGradient id="paint0_linear_133_1153" x1="574.5" y1="7.94444" x2="574.5" y2="176" gradientUnits="userSpaceOnUse">
<stop offset="0.0933855" stop-color="#3C32FC"/>
<stop offset="1" stop-color="#00FFFF"/>
</linearGradient>
</defs>
</svg>
